<svg width="278" height="100" viewBox="0 0 278 100" fill="none" xmlns="http://www.w3.org/2000/svg">
<path d="M18.605 40.4316C20.135 42.0716 21.075 44.2616 21.075 46.6716C21.075 49.7816 19.515 52.5316 17.135 54.1816H12.715C9.295 54.1816 6.305 51.5516 6.205 48.1316C6.095 44.5916 8.935 41.6816 12.455 41.6816H17.625L18.605 40.4316Z" fill="url(#paint0_linear_2264_883)"/>
<path d="M79.4555 56.5815L62.4155 78.4015C60.1155 81.3515 56.9155 82.9515 53.5855 82.9515C52.4055 82.9515 51.2155 82.7515 50.0355 82.3415C45.0055 80.6115 41.6255 75.4315 41.6255 69.4515V34.3415C41.6255 33.3315 40.3555 32.9015 39.7355 33.6915L27.2555 49.6615C26.2055 51.0115 24.9455 52.0815 23.5355 52.8415C24.5155 50.9915 25.0755 48.8914 25.0755 46.6714C25.0755 42.9814 23.5455 39.6415 21.0955 37.2415L33.3255 21.5915C36.4355 17.6015 41.1855 16.0915 45.7055 17.6515C50.7355 19.3815 54.1255 24.5615 54.1255 30.5415V65.7915C54.1255 66.7515 55.3355 67.1715 55.9155 66.4115L72.3255 45.4015C73.2655 44.2015 74.3855 43.2115 75.6255 42.4715C75.1755 43.7915 74.9355 45.2014 74.9355 46.6714C74.9355 50.6214 76.6855 54.1715 79.4555 56.5815Z" fill="url(#paint1_linear_2264_883)"/>
<path d="M94.1853 46.9406C94.2953 50.4806 91.4553 53.3807 87.9353 53.3807H81.9553L81.9253 53.4206C80.0853 51.7506 78.9353 49.3406 78.9353 46.6706C78.9353 44.4806 79.7053 42.4706 80.9953 40.8906C81.0753 40.8906 81.1653 40.8906 81.2453 40.8906H87.6753C91.0953 40.8906 94.0853 43.5306 94.1853 46.9506V46.9406Z" fill="url(#paint2_linear_2264_883)"/>
<path d="M21.0749 46.67C21.0749 49.78 19.5149 52.53 17.1349 54.18C15.6549 55.22 13.8549 55.83 11.9149 55.83C6.85487 55.83 2.74487 51.72 2.74487 46.67C2.74487 41.62 6.85487 37.5 11.9149 37.5C14.5549 37.5 16.9449 38.63 18.6049 40.43C20.1349 42.07 21.0749 44.26 21.0749 46.67Z" fill="#573BE1"/>
<path d="M97.2553 46.67C97.2553 51.72 93.1453 55.83 88.0953 55.83C85.7153 55.83 83.5553 54.9206 81.9253 53.4206C80.0853 51.7506 78.9353 49.3406 78.9353 46.6706C78.9353 44.4806 79.7053 42.4706 80.9953 40.8906C82.6753 38.8206 85.2353 37.5 88.0953 37.5C93.1453 37.5 97.2553 41.61 97.2553 46.67Z" fill="#9D4CF0"/>
<path d="M118.247 67.8926V25.3886H138.179C141.523 25.3886 144.251 26.0266 146.363 27.3026C148.519 28.5786 150.125 30.3166 151.181 32.5166C152.237 34.7166 152.765 37.2246 152.765 40.0406C152.765 42.9006 152.149 45.4306 150.917 47.6306C149.729 49.8306 148.013 51.5466 145.769 52.7786C143.569 53.9666 140.951 54.5606 137.915 54.5606H127.157V67.8926H118.247ZM127.157 47.4986H136.067C138.619 47.4986 140.533 46.8386 141.809 45.5186C143.129 44.1546 143.789 42.3286 143.789 40.0406C143.789 37.5766 143.173 35.7066 141.941 34.4306C140.709 33.1106 138.861 32.4506 136.397 32.4506H127.157V47.4986ZM160.193 30.8666V23.8706H169.895V30.8666H160.193ZM160.919 67.8926V43.2086H156.233L157.025 36.6086H169.829V67.8926H160.919ZM177.415 82.1486V36.6086H185.137L185.599 39.5126C186.963 38.3686 188.459 37.4886 190.087 36.8726C191.715 36.2566 193.629 35.9486 195.829 35.9486C200.405 35.9486 203.925 37.2026 206.389 39.7106C208.897 42.1746 210.151 46.2226 210.151 51.8546C210.151 57.4866 208.809 61.6886 206.125 64.4606C203.485 67.1886 199.877 68.5526 195.301 68.5526C191.781 68.5526 188.789 67.7606 186.325 66.1766V82.1486H177.415ZM193.057 62.0186C195.697 62.0186 197.699 61.2046 199.063 59.5766C200.427 57.9486 201.109 55.3966 201.109 51.9206C201.109 48.5766 200.493 46.1786 199.261 44.7266C198.029 43.2306 196.049 42.4826 193.321 42.4826C190.593 42.4826 188.261 43.4286 186.325 45.3206V59.6426C187.249 60.3466 188.217 60.9186 189.229 61.3586C190.285 61.7986 191.561 62.0186 193.057 62.0186ZM232.647 68.5526C227.235 68.5526 222.945 67.2106 219.777 64.5266C216.609 61.7986 215.025 57.6846 215.025 52.1846C215.025 47.2126 216.345 43.2746 218.985 40.3706C221.669 37.4226 225.651 35.9486 230.931 35.9486C235.771 35.9486 239.467 37.2246 242.019 39.7766C244.615 42.2846 245.913 45.5846 245.913 49.6766V55.3526H223.275C223.759 57.8606 224.903 59.5766 226.707 60.5006C228.555 61.4246 231.151 61.8866 234.495 61.8866C236.167 61.8866 237.861 61.7326 239.577 61.4246C241.337 61.1166 242.833 60.7206 244.065 60.2366V66.5726C242.613 67.2326 240.919 67.7166 238.983 68.0246C237.047 68.3766 234.935 68.5526 232.647 68.5526ZM223.275 49.8746H238.125V48.1586C238.125 46.3546 237.597 44.9466 236.541 43.9346C235.485 42.8786 233.703 42.3506 231.195 42.3506C228.247 42.3506 226.179 42.9446 224.991 44.1326C223.847 45.3206 223.275 47.2346 223.275 49.8746ZM252.117 67.8926V36.6086H260.367L260.763 39.8426C262.171 38.9626 263.909 38.1706 265.977 37.4666C268.089 36.7186 270.157 36.2126 272.181 35.9486V42.6806C270.993 42.8566 269.695 43.1206 268.287 43.4726C266.879 43.8246 265.537 44.2206 264.261 44.6606C262.985 45.1006 261.907 45.5626 261.027 46.0466V67.8926H252.117Z" fill="white"/>
<defs>
<linearGradient id="paint0_linear_2264_883" x1="2.76452" y1="50.0231" x2="97.2553" y2="50.0231" gradientUnits="userSpaceOnUse">
<stop stop-color="#573BE1"/>
<stop offset="1" stop-color="#9D4CF0"/>
</linearGradient>
<linearGradient id="paint1_linear_2264_883" x1="21.9603" y1="50.0015" x2="97.2553" y2="50.0015" gradientUnits="userSpaceOnUse">
<stop stop-color="#573BE1"/>
<stop offset="1" stop-color="#9D4CF0"/>
</linearGradient>
<linearGradient id="paint2_linear_2264_883" x1="2.74487" y1="49.9729" x2="97.2362" y2="49.9729" gradientUnits="userSpaceOnUse">
<stop stop-color="#573BE1"/>
<stop offset="1" stop-color="#9D4CF0"/>
</linearGradient>
</defs>
</svg>
