<svg width="160" height="170" viewBox="0 0 160 170" fill="none" xmlns="http://www.w3.org/2000/svg">
    <path
        d="M59.4454 0.0365954C59.9671 0.0351498 60.4889 0.0334301 61.0106 0.0314615C62.4127 0.027068 63.8148 0.0268262 65.2169 0.0276705C66.3954 0.0280283 67.5739 0.026398 68.7524 0.024818C71.5379 0.0211553 74.3234 0.0209863 77.1089 0.0229995C79.9632 0.0249979 82.8175 0.0209265 85.6718 0.0138606C88.1392 0.00798163 90.6065 0.00603808 93.0739 0.00711085C94.5401 0.00770584 96.0062 0.0068984 97.4724 0.00223325C104.872 -0.0193083 112.066 0.0737261 119.23 2.17868C119.576 2.27875 119.923 2.37882 120.28 2.48192C123.417 3.41845 126.365 4.60747 129.278 6.0943C129.529 6.22212 129.781 6.34993 130.04 6.48162C138.958 11.0779 146.543 18.1163 151.818 26.6461C152.029 26.9803 152.241 27.3144 152.458 27.6587C156.215 33.8206 158.364 40.7536 159.442 47.8609C159.504 48.2523 159.565 48.6437 159.629 49.047C160.269 54.3681 160.072 60.1612 159.111 65.4294C159.072 65.6671 159.033 65.9048 158.992 66.1497C157.077 77.6448 150.809 87.8715 142.537 95.9257C142.376 96.0975 142.216 96.2692 142.05 96.4462C138.011 100.695 132.531 103.756 127.261 106.234C126.672 106.511 126.088 106.796 125.503 107.082C122.483 108.483 119.355 109.311 116.097 109.964C115.362 110.112 114.628 110.268 113.896 110.432C109.089 111.427 104.233 111.304 99.3491 111.275C98.1015 111.268 96.854 111.268 95.6064 111.267C93.254 111.264 90.9015 111.255 88.5491 111.245C85.8667 111.234 83.1843 111.229 80.5019 111.224C74.9932 111.214 69.4845 111.195 63.9759 111.174C63.9759 114.674 63.9759 118.175 63.9759 121.781C60.4754 121.781 56.975 121.781 53.3685 121.781C53.3685 104.17 53.3685 86.558 53.3685 68.4128C56.8689 68.4128 60.3693 68.4128 63.9759 68.4128C63.9759 71.9132 63.9759 75.4136 63.9759 79.0202C69.4508 78.9918 74.9256 78.9607 80.4005 78.9248C82.9428 78.9083 85.4852 78.8929 88.0275 78.8803C90.2446 78.8694 92.4616 78.8561 94.6786 78.8402C95.8515 78.8319 97.0243 78.8247 98.1972 78.8202C99.5096 78.8151 100.822 78.8049 102.134 78.7944C102.711 78.7933 102.711 78.7933 103.3 78.7922C110.177 78.7218 116.328 76.3142 121.25 71.479C125.258 67.0441 127.341 61.6867 127.372 55.775C127.378 55.4494 127.385 55.1238 127.392 54.7884C127.42 49.5938 125.317 44.4983 121.819 40.6512C121.546 40.4051 121.272 40.159 120.991 39.9054C120.76 39.6484 120.76 39.6484 120.524 39.3861C117.096 35.6295 111.986 33.1591 106.915 32.8814C105.548 32.8535 104.182 32.8469 102.815 32.848C102.291 32.846 101.768 32.8437 101.244 32.8412C99.8304 32.8354 98.4169 32.8338 97.0033 32.8334C96.1182 32.8329 95.2332 32.8315 94.3482 32.8297C91.2554 32.8236 88.1627 32.8209 85.07 32.8214C82.1951 32.8218 79.3203 32.8148 76.4454 32.8044C73.9697 32.7957 71.494 32.7921 69.0182 32.7926C67.5428 32.7927 66.0675 32.7909 64.5921 32.7838C63.2042 32.7774 61.8164 32.7774 60.4284 32.7822C59.9216 32.7829 59.4148 32.7813 58.908 32.7773C54.4234 32.7439 50.8533 33.6 47.4018 36.5906C46.6505 37.4258 46.0267 38.3034 45.4129 39.2424C45.1736 39.5569 44.9343 39.8714 44.6878 40.1954C43.0133 43.0825 42.9483 46.0168 42.9604 49.2863C42.9586 49.7609 42.9563 50.2355 42.9537 50.7101C42.9478 52.0065 42.9479 53.3028 42.9491 54.5993C42.9493 56.0002 42.9438 57.4011 42.939 58.802C42.9314 61.2266 42.9275 63.6512 42.926 66.0758C42.9239 69.5813 42.9163 73.0869 42.9073 76.5924C42.893 82.2804 42.8831 87.9684 42.8759 93.6565C42.8689 99.1806 42.8599 104.705 42.8481 110.229C42.8473 110.57 42.8466 110.91 42.8459 111.261C42.8422 112.971 42.8385 114.68 42.8347 116.39C42.8039 130.562 42.7804 144.735 42.7611 158.907C46.2615 158.907 49.762 158.907 53.3685 158.907C53.3685 162.517 53.3685 166.127 53.3685 169.846C35.7569 169.846 18.1453 169.846 0 169.846C0 166.346 0 162.845 0 159.239C3.50044 159.239 7.00088 159.239 10.6074 159.239C10.6067 157.799 10.6059 156.359 10.6052 154.876C10.5986 141.665 10.5936 128.455 10.5905 115.245C10.5901 113.513 10.5896 111.781 10.5892 110.049C10.5891 109.704 10.589 109.359 10.5889 109.004C10.5875 103.424 10.5849 97.8437 10.5818 92.2638C10.5787 86.5361 10.5769 80.8084 10.5762 75.0807C10.5758 71.5479 10.5743 68.0151 10.5716 64.4823C10.5699 62.058 10.5693 59.6337 10.5698 57.2094C10.57 55.8119 10.5697 54.4143 10.5679 53.0167C10.5663 51.7347 10.5662 50.4527 10.5673 49.1707C10.5675 48.7093 10.5671 48.248 10.566 47.7866C10.5576 43.8556 10.5918 39.9604 11.664 36.1555C11.7371 35.8892 11.8103 35.6229 11.8857 35.3485C13.5204 29.5547 15.8735 24.1576 19.5574 19.3535C19.774 19.0694 19.9907 18.7852 20.2139 18.4925C23.4723 14.3675 27.094 10.9525 31.4907 8.08319C31.8535 7.84433 32.2163 7.60547 32.59 7.35937C40.8059 2.12932 49.7999 0.0186207 59.4454 0.0365954Z"
        fill="url(#paint0_linear_2359_1512)" />
    <defs>
        <linearGradient id="paint0_linear_2359_1512" x1="80" y1="0" x2="80" y2="169.846"
            gradientUnits="userSpaceOnUse">
            <stop stop-color="#3965B6" />
            <stop offset="1" stop-color="#A600FD" />
        </linearGradient>
    </defs>
</svg>