<svg width="319" height="78" viewBox="0 0 319 78" fill="none" xmlns="http://www.w3.org/2000/svg">
    <g clip-path="url(#clip0_2269_897)">
        <mask id="mask0_2269_897" style="mask-type:luminance" maskUnits="userSpaceOnUse" x="0" y="0"
            width="95" height="78">
            <path d="M95 0H0V78H95V0Z" fill="white" />
        </mask>
        <g mask="url(#mask0_2269_897)">
            <mask id="mask1_2269_897" style="mask-type:luminance" maskUnits="userSpaceOnUse" x="0"
                y="0" width="311" height="78">
                <path d="M310.62 0H0V77.21H310.62V0Z" fill="white" />
            </mask>
            <g mask="url(#mask1_2269_897)">
                <path
                    d="M15.8601 26.9297C17.3901 28.5697 18.3301 30.7597 18.3301 33.1697C18.3301 36.2797 16.7701 39.0297 14.3901 40.6797H9.97012C6.55012 40.6797 3.56012 38.0497 3.46012 34.6297C3.35012 31.0897 6.19012 28.1797 9.71012 28.1797H14.8801L15.8601 26.9297Z"
                    fill="url(#paint0_linear_2269_897)" />
                <path
                    d="M76.7106 43.0795L59.6706 64.8995C57.3706 67.8495 54.1706 69.4495 50.8406 69.4495C49.6606 69.4495 48.4706 69.2495 47.2906 68.8395C42.2606 67.1095 38.8806 61.9295 38.8806 55.9495V20.8395C38.8806 19.8295 37.6106 19.3995 36.9906 20.1895L24.5106 36.1595C23.4606 37.5095 22.2006 38.5795 20.7906 39.3395C21.7706 37.4895 22.3306 35.3895 22.3306 33.1695C22.3306 29.4795 20.8006 26.1395 18.3506 23.7395L30.5806 8.0895C33.6906 4.0995 38.4406 2.5895 42.9606 4.1495C47.9906 5.8795 51.3806 11.0595 51.3806 17.0395V52.2895C51.3806 53.2495 52.5906 53.6695 53.1706 52.9095L69.5806 31.8995C70.5206 30.6995 71.6406 29.7095 72.8806 28.9695C72.4306 30.2895 72.1906 31.6995 72.1906 33.1695C72.1906 37.1195 73.9406 40.6695 76.7106 43.0795Z"
                    fill="url(#paint1_linear_2269_897)" />
                <path
                    d="M91.4404 33.4387C91.5504 36.9787 88.7104 39.8788 85.1904 39.8788H79.2104L79.1804 39.9187C77.3404 38.2487 76.1904 35.8387 76.1904 33.1687C76.1904 30.9787 76.9604 28.9687 78.2504 27.3887C78.3304 27.3887 78.4204 27.3887 78.5004 27.3887H84.9304C88.3504 27.3887 91.3404 30.0287 91.4404 33.4487V33.4387Z"
                    fill="url(#paint2_linear_2269_897)" />
                <path
                    d="M18.33 33.168C18.33 36.278 16.77 39.028 14.39 40.678C12.91 41.718 11.11 42.328 9.17 42.328C4.11 42.328 0 38.218 0 33.168C0 28.118 4.11 23.998 9.17 23.998C11.81 23.998 14.2 25.128 15.86 26.928C17.39 28.568 18.33 30.758 18.33 33.168Z"
                    fill="#573BE1" />
                <path
                    d="M94.5104 33.168C94.5104 38.218 90.4004 42.328 85.3504 42.328C82.9704 42.328 80.8104 41.418 79.1804 39.918C77.3404 38.248 76.1904 35.838 76.1904 33.168C76.1904 30.978 76.9604 28.968 78.2504 27.388C79.9304 25.318 82.4904 23.998 85.3504 23.998C90.4004 23.998 94.5104 28.108 94.5104 33.168Z"
                    fill="#9D4CF0" />
            </g>
        </g>
        <path
            d="M293.323 58.1799V18.1434H303.881L304.388 22.2822C306.189 21.156 308.414 20.1424 311.06 19.2414C313.763 18.2842 316.41 17.6366 319 17.2988V25.9142C317.48 26.1394 315.818 26.4773 314.017 26.9278C312.215 27.3783 310.497 27.8851 308.864 28.4482C307.231 29.0113 305.852 29.6025 304.725 30.2219V58.1799H293.323Z"
            fill="white" />
        <path
            d="M268.406 59.0246C261.48 59.0246 255.99 57.3071 251.935 53.8722C247.881 50.381 245.854 45.116 245.854 38.0772C245.854 31.7141 247.543 26.6744 250.922 22.9579C254.357 19.1851 259.453 17.2988 266.21 17.2988C272.404 17.2988 277.134 18.9317 280.4 22.1977C283.722 25.4074 285.383 29.6307 285.383 34.8675V42.1315H256.412C257.031 45.3412 258.495 47.5373 260.804 48.7198C263.169 49.9023 266.491 50.4936 270.771 50.4936C272.911 50.4936 275.079 50.2965 277.275 49.9023C279.527 49.5082 281.442 49.0014 283.018 48.382V56.4906C281.16 57.3353 278.992 57.9547 276.515 58.3488C274.037 58.7993 271.334 59.0246 268.406 59.0246ZM256.412 35.1209H275.417V32.9248C275.417 30.6161 274.741 28.8142 273.389 27.519C272.038 26.1676 269.757 25.4919 266.548 25.4919C262.775 25.4919 260.128 26.2521 258.608 27.7724C257.144 29.2928 256.412 31.7423 256.412 35.1209Z"
            fill="white" />
        <path
            d="M197.722 76.4244V18.1434H207.604L208.195 21.8599C209.941 20.3958 211.856 19.2696 213.939 18.4813C216.023 17.6929 218.472 17.2988 221.288 17.2988C227.144 17.2988 231.649 18.9036 234.802 22.1133C238.012 25.2666 239.616 30.4472 239.616 37.6549C239.616 44.8626 237.899 50.2402 234.464 53.7877C231.086 57.279 226.468 59.0246 220.612 59.0246C216.107 59.0246 212.278 58.011 209.125 55.9838V76.4244H197.722ZM217.74 50.6625C221.119 50.6625 223.681 49.6208 225.426 47.5373C227.172 45.4538 228.045 42.1878 228.045 37.7393C228.045 33.4598 227.256 30.3909 225.68 28.5326C224.103 26.6181 221.569 25.6608 218.078 25.6608C214.587 25.6608 211.602 26.8715 209.125 29.2928V47.6218C210.307 48.5227 211.546 49.2548 212.841 49.8179C214.192 50.381 215.825 50.6625 217.74 50.6625Z"
            fill="white" />
        <path
            d="M175.681 10.7951V1.8418H188.097V10.7951H175.681ZM176.61 58.1801V26.5901H170.613L171.627 18.1436H188.013V58.1801H176.61Z"
            fill="white" />
        <path
            d="M122 58.1808V3.78516H147.508C151.788 3.78516 155.279 4.60166 157.982 6.23465C160.741 7.86765 162.797 10.0919 164.148 12.9074C165.5 15.7229 166.175 18.9326 166.175 22.5364C166.175 26.1966 165.387 29.4344 163.81 32.2499C162.29 35.0654 160.094 37.2615 157.222 38.8382C154.406 40.3586 151.056 41.1188 147.171 41.1188H133.403V58.1808H122ZM133.403 32.081H144.806C148.072 32.081 150.521 31.2363 152.154 29.547C153.843 27.8014 154.688 25.4646 154.688 22.5364C154.688 19.3831 153.9 16.9899 152.323 15.3569C150.746 13.6676 148.381 12.8229 145.228 12.8229H133.403V32.081Z"
            fill="white" />
    </g>
    <defs>
        <linearGradient id="paint0_linear_2269_897" x1="3.46012" y1="33.8097" x2="18.3301"
            y2="33.8097" gradientUnits="userSpaceOnUse">
            <stop stop-color="#573BE1" />
            <stop offset="1" stop-color="#9D4CF0" />
        </linearGradient>
        <linearGradient id="paint1_linear_2269_897" x1="18.3506" y1="36.4995" x2="76.7106"
            y2="36.4995" gradientUnits="userSpaceOnUse">
            <stop stop-color="#573BE1" />
            <stop offset="1" stop-color="#9D4CF0" />
        </linearGradient>
        <linearGradient id="paint2_linear_2269_897" x1="76.1904" y1="33.6487" x2="91.4404"
            y2="33.6487" gradientUnits="userSpaceOnUse">
            <stop stop-color="#573BE1" />
            <stop offset="1" stop-color="#9D4CF0" />
        </linearGradient>
        <clipPath id="clip0_2269_897">
            <rect width="319" height="78" fill="white" />
        </clipPath>
    </defs>
</svg>