<svg width="100" height="100" viewBox="0 0 100 100" fill="none" xmlns="http://www.w3.org/2000/svg">
<path d="M18.605 40.4316C20.135 42.0716 21.075 44.2616 21.075 46.6716C21.075 49.7816 19.515 52.5316 17.135 54.1816H12.715C9.295 54.1816 6.305 51.5516 6.205 48.1316C6.095 44.5916 8.935 41.6816 12.455 41.6816H17.625L18.605 40.4316Z" fill="url(#paint0_linear_2264_883)"/>
<path d="M79.4555 56.5815L62.4155 78.4015C60.1155 81.3515 56.9155 82.9515 53.5855 82.9515C52.4055 82.9515 51.2155 82.7515 50.0355 82.3415C45.0055 80.6115 41.6255 75.4315 41.6255 69.4515V34.3415C41.6255 33.3315 40.3555 32.9015 39.7355 33.6915L27.2555 49.6615C26.2055 51.0115 24.9455 52.0815 23.5355 52.8415C24.5155 50.9915 25.0755 48.8914 25.0755 46.6714C25.0755 42.9814 23.5455 39.6415 21.0955 37.2415L33.3255 21.5915C36.4355 17.6015 41.1855 16.0915 45.7055 17.6515C50.7355 19.3815 54.1255 24.5615 54.1255 30.5415V65.7915C54.1255 66.7515 55.3355 67.1715 55.9155 66.4115L72.3255 45.4015C73.2655 44.2015 74.3855 43.2115 75.6255 42.4715C75.1755 43.7915 74.9355 45.2014 74.9355 46.6714C74.9355 50.6214 76.6855 54.1715 79.4555 56.5815Z" fill="url(#paint1_linear_2264_883)"/>
<path d="M94.1853 46.9406C94.2953 50.4806 91.4553 53.3807 87.9353 53.3807H81.9553L81.9253 53.4206C80.0853 51.7506 78.9353 49.3406 78.9353 46.6706C78.9353 44.4806 79.7053 42.4706 80.9953 40.8906C81.0753 40.8906 81.1653 40.8906 81.2453 40.8906H87.6753C91.0953 40.8906 94.0853 43.5306 94.1853 46.9506V46.9406Z" fill="url(#paint2_linear_2264_883)"/>
<path d="M21.0749 46.67C21.0749 49.78 19.5149 52.53 17.1349 54.18C15.6549 55.22 13.8549 55.83 11.9149 55.83C6.85487 55.83 2.74487 51.72 2.74487 46.67C2.74487 41.62 6.85487 37.5 11.9149 37.5C14.5549 37.5 16.9449 38.63 18.6049 40.43C20.1349 42.07 21.0749 44.26 21.0749 46.67Z" fill="#573BE1"/>
<path d="M97.2553 46.67C97.2553 51.72 93.1453 55.83 88.0953 55.83C85.7153 55.83 83.5553 54.9206 81.9253 53.4206C80.0853 51.7506 78.9353 49.3406 78.9353 46.6706C78.9353 44.4806 79.7053 42.4706 80.9953 40.8906C82.6753 38.8206 85.2353 37.5 88.0953 37.5C93.1453 37.5 97.2553 41.61 97.2553 46.67Z" fill="#9D4CF0"/>
<defs>
<linearGradient id="paint0_linear_2264_883" x1="2.76452" y1="50.0231" x2="97.2553" y2="50.0231" gradientUnits="userSpaceOnUse">
<stop stop-color="#573BE1"/>
<stop offset="1" stop-color="#9D4CF0"/>
</linearGradient>
<linearGradient id="paint1_linear_2264_883" x1="21.9603" y1="50.0015" x2="97.2553" y2="50.0015" gradientUnits="userSpaceOnUse">
<stop stop-color="#573BE1"/>
<stop offset="1" stop-color="#9D4CF0"/>
</linearGradient>
<linearGradient id="paint2_linear_2264_883" x1="2.74487" y1="49.9729" x2="97.2362" y2="49.9729" gradientUnits="userSpaceOnUse">
<stop stop-color="#573BE1"/>
<stop offset="1" stop-color="#9D4CF0"/>
</linearGradient>
</defs>
</svg>
