<svg width="75" height="67" viewBox="0 0 75 67" fill="none" xmlns="http://www.w3.org/2000/svg">
    <path
        d="M25.1755 52.8333H38.5071C46.265 52.8333 50.1016 43.4102 44.55 37.9913L35.1194 29.2991C29.1615 23.8077 33.0468 13.8594 41.1495 13.8594H50.8744"
        stroke="#8439FF" stroke-width="9" />
    <path fill-rule="evenodd" clip-rule="evenodd"
        d="M17.3314 63H10.6686C6.98693 62.9968 4.00315 60.0131 4 56.3314V49.6686C4.00315 45.9869 6.98693 43.0032 10.6686 43H17.3314C21.0131 43.0032 23.9968 45.9869 24 49.6686V56.3314C23.9968 60.0131 21.0131 62.9968 17.3314 63V63Z"
        stroke="#8439FF" stroke-width="8" stroke-linecap="round" stroke-linejoin="round" />
    <path fill-rule="evenodd" clip-rule="evenodd"
        d="M66.3309 26H57.6691C52.883 25.9959 49.0041 22.117 49 17.3309V8.66914C49.0041 3.883 52.883 0.00409611 57.6691 0H66.3309C71.117 0.00409611 74.9959 3.883 75 8.66914V17.3309C74.9959 22.117 71.117 25.9959 66.3309 26V26Z"
        fill="#8439FF" />
</svg>