<svg width="265" height="82" viewBox="0 0 265 82" fill="none" xmlns="http://www.w3.org/2000/svg">
    <path
        d="M107.383 66.7246H96.5288V0.484375H114.48C121.191 0.484375 126.046 1.65951 129.046 4.00977C132.046 6.36003 133.685 10.241 133.963 15.6528C134.179 18.2196 134.288 20.5853 134.288 22.75C134.288 24.8838 134.179 27.1877 133.963 29.6616C133.685 35.0425 132.03 38.908 129 41.2583C126 43.6086 121.114 44.7837 114.341 44.7837H107.383V66.7246ZM107.383 10.3184V34.9497H114.341C117.341 34.9497 119.506 34.5477 120.835 33.7437C122.196 32.9396 122.938 31.7799 123.062 30.2646C123.278 27.9762 123.387 25.4404 123.387 22.6572C123.387 19.8431 123.278 17.3073 123.062 15.0498C122.938 13.5036 122.212 12.3285 120.882 11.5244C119.552 10.7204 117.418 10.3184 114.48 10.3184H107.383ZM150.477 15.0034H140.225V6.51465H150.477V15.0034ZM150.477 66.7246H140.225V21.5903H150.477V66.7246ZM168.243 81.7539H158.038V21.5903H168.243V26.4146H169.866C170.979 24.59 172.201 23.2139 173.531 22.2861C174.891 21.3275 176.886 20.8481 179.515 20.8481C183.009 20.8481 185.684 21.8223 187.54 23.7705C189.395 25.6878 190.416 28.9349 190.601 33.5117C190.663 34.6868 190.709 36.2331 190.74 38.1504C190.802 40.0368 190.833 42.0314 190.833 44.1343C190.833 46.2371 190.802 48.2472 190.74 50.1646C190.709 52.0509 190.663 53.5817 190.601 54.7568C190.416 59.3027 189.302 62.5498 187.261 64.498C185.251 66.4463 182.499 67.4204 179.004 67.4204C176.963 67.4204 175.232 67.0029 173.809 66.168C172.417 65.3021 171.103 63.8641 169.866 61.854H168.243V81.7539ZM175.062 59.2563C178.463 59.2563 180.257 58.0812 180.442 55.731C180.597 53.7518 180.69 51.3706 180.721 48.5874C180.783 45.8042 180.783 42.9746 180.721 40.0986C180.69 37.2227 180.597 34.7023 180.442 32.5376C180.35 31.3315 179.948 30.4347 179.236 29.8472C178.525 29.2596 177.35 28.9658 175.711 28.9658C174.103 28.9658 172.603 29.2596 171.211 29.8472C169.851 30.4347 168.861 31.2233 168.243 32.2129V56.0557C169.48 58.1895 171.753 59.2563 175.062 59.2563ZM213.052 67.4204C207.3 67.4204 203.141 66.3999 200.574 64.3589C198.007 62.2869 196.6 58.8698 196.353 54.1074C196.291 53.2415 196.229 51.9272 196.167 50.1646C196.137 48.3709 196.121 46.4382 196.121 44.3662C196.121 42.2943 196.137 40.346 196.167 38.5215C196.198 36.6969 196.26 35.3053 196.353 34.3467C196.631 29.4606 198.069 25.9971 200.667 23.9561C203.265 21.8841 207.362 20.8481 212.959 20.8481C218.464 20.8481 222.453 21.8532 224.927 23.8633C227.432 25.8734 228.793 29.2132 229.009 33.8828C229.071 34.4085 229.118 35.3672 229.148 36.7588C229.21 38.1504 229.226 39.6812 229.195 41.3511C229.195 43.021 229.118 44.5672 228.963 45.9897H206.373C206.373 47.6287 206.388 49.2368 206.419 50.814C206.45 52.3602 206.496 53.8446 206.558 55.2671C206.589 56.6587 207.099 57.6483 208.089 58.2358C209.109 58.8234 210.748 59.1172 213.006 59.1172C215.14 59.1172 216.655 58.8234 217.552 58.2358C218.449 57.6483 218.959 56.6587 219.083 55.2671C219.144 54.0301 219.144 52.0046 219.083 49.1904H228.963C229.025 49.4378 229.056 50.1182 229.056 51.2314C229.087 52.3138 229.071 53.2725 229.009 54.1074C228.793 58.8698 227.463 62.2869 225.02 64.3589C222.608 66.3999 218.619 67.4204 213.052 67.4204ZM206.373 38.2896H219.129C219.16 36.9289 219.175 35.6919 219.175 34.5786C219.175 33.4653 219.144 32.8005 219.083 32.584C218.959 31.3779 218.433 30.512 217.505 29.9863C216.578 29.4297 215.062 29.1514 212.959 29.1514C210.702 29.1514 209.078 29.4297 208.089 29.9863C207.13 30.512 206.62 31.3779 206.558 32.584C206.527 33.4808 206.496 34.4085 206.465 35.3672C206.434 36.3258 206.403 37.3 206.373 38.2896ZM245.059 66.7246H234.854V21.5903H245.059V26.4146H246.822C247.75 24.59 248.801 23.2139 249.976 22.2861C251.151 21.3275 252.821 20.8481 254.986 20.8481C258.016 20.8481 260.336 21.7913 261.944 23.6777C263.552 25.5641 264.356 28.672 264.356 33.0015C264.356 34.1457 264.294 35.228 264.17 36.2485C264.078 37.2381 263.954 38.1195 263.799 38.8926H254.661C254.692 38.2741 254.708 37.3773 254.708 36.2021C254.738 35.027 254.754 34.2848 254.754 33.9756C254.754 32.0583 254.383 30.744 253.641 30.0327C252.898 29.3215 251.94 28.9658 250.765 28.9658C249.62 28.9658 248.492 29.2596 247.378 29.8472C246.296 30.4347 245.523 31.2233 245.059 32.2129V66.7246Z"
        fill="#8439FF" />
    <path d="M58.683 15.1413H23.5273" stroke="#8439FF" stroke-width="8" stroke-linecap="round"
        stroke-linejoin="round" />
    <path fill-rule="evenodd" clip-rule="evenodd"
        d="M13.9395 24.7286V24.7286C8.64422 24.7286 4.35156 20.4359 4.35156 15.1406V15.1406C4.35156 9.84539 8.64422 5.55273 13.9395 5.55273V5.55273C19.2347 5.55273 23.5274 9.84539 23.5274 15.1406V15.1406C23.5274 20.4359 19.2347 24.7286 13.9395 24.7286Z"
        stroke="#8439FF" stroke-width="8" stroke-linecap="round" stroke-linejoin="round" />
    <path fill-rule="evenodd" clip-rule="evenodd"
        d="M73.5954 26.3288H66.1424C62.0242 26.3253 58.6866 22.9877 58.683 18.8694V11.4164C58.6866 7.29818 62.0242 3.96056 66.1424 3.95703H73.5954C77.7137 3.96056 81.0513 7.29818 81.0548 11.4164V18.8694C81.0513 22.9877 77.7137 26.3253 73.5954 26.3288Z"
        stroke="#8439FF" stroke-width="8" stroke-linecap="round" stroke-linejoin="round" />
    <path fill-rule="evenodd" clip-rule="evenodd"
        d="M33.6459 72.6706H26.1929C22.0746 72.6671 18.737 69.3295 18.7335 65.2112V57.7582C18.737 53.64 22.0746 50.3024 26.1929 50.2988H33.6459C37.7641 50.3024 41.1017 53.64 41.1053 57.7582V65.2112C41.1017 69.3295 37.7641 72.6671 33.6459 72.6706V72.6706Z"
        stroke="#8439FF" stroke-width="8" stroke-linecap="round" stroke-linejoin="round" />
    <path d="M58.6831 19.4062H55.4871C41.3664 19.4062 29.9193 30.8533 29.9193 44.974V50.2985"
        stroke="#8439FF" stroke-width="8" stroke-linecap="round" stroke-linejoin="round" />
</svg>